<svg xmlns="http://www.w3.org/2000/svg" xmlns:xlink="http://www.w3.org/1999/xlink" width="21" height="21" viewBox="0 0 21 21"><defs><style>.a{fill:none;}.b{clip-path:url(#a);}.c{fill:#909090;}</style><clipPath id="a"><rect class="a" width="21" height="21"/></clipPath></defs><g class="b"><path class="c" d="M12.5,16.25H6.25l2.285-2.5H16.25A1.25,1.25,0,0,0,17.5,12.5V5h1.25A1.25,1.25,0,0,1,20,6.25V15a1.251,1.251,0,0,1-1.25,1.251h-2.5V20Zm-8.75-5H1.25A1.251,1.251,0,0,1,0,10V1.25A1.251,1.251,0,0,1,1.25,0h12.5A1.25,1.25,0,0,1,15,1.25V10a1.25,1.25,0,0,1-1.25,1.25H7.5L3.75,15Z" transform="translate(0 0)"/></g></svg>