<svg xmlns="http://www.w3.org/2000/svg" width="18.01" height="20.2" viewBox="0 0 18.01 20.2">
  <g id="cloud" transform="translate(-3.404 0.1)">
    <path id="Path_9976" data-name="Path 9976" d="M30.2,19.043c-.009.006-.02.007-.03.014l-.569.428a.285.285,0,0,0,.343.456l.02-.015a2.279,2.279,0,0,1-3.96.793.285.285,0,1,0-.443.359,2.847,2.847,0,0,0,4.969-1.067l.013.017A.285.285,0,0,0,31,19.685l-.428-.571c0-.006-.01-.008-.015-.013a.283.283,0,0,0-.044-.039.326.326,0,0,0-.043-.029.3.3,0,0,0-.051-.018A.268.268,0,0,0,30.364,19c-.007,0-.013,0-.02,0a.313.313,0,0,0-.033.007.284.284,0,0,0-.055.011.3.3,0,0,0-.053.025Z" transform="translate(-14.808 -12.954)" fill="#909090" stroke="#707070" stroke-width="0.2"/>
    <path id="Path_9977" data-name="Path 9977" d="M21.314,8.437a3.128,3.128,0,0,0-2.828-3.109A5.62,5.62,0,0,0,7.7,3.437H7.566A4.062,4.062,0,0,0,6,11.248v.958a2.5,2.5,0,1,0,.625,0v-.758a4.044,4.044,0,0,0,.939.114h4.374v2.2a3.125,3.125,0,1,0,.625,0v-2.2h5.311v.644a2.5,2.5,0,1,0,.625,0v-.66a3.13,3.13,0,0,0,2.813-3.11ZM8.19,14.685A1.875,1.875,0,1,1,6.315,12.81,1.877,1.877,0,0,1,8.19,14.685Zm6.563,2.19a2.5,2.5,0,1,1-2.5-2.5A2.5,2.5,0,0,1,14.753,16.875ZM4.129,7.5A3.439,3.439,0,0,1,7.476,4.067a5.606,5.606,0,0,0-.224,1.558.312.312,0,1,0,.625,0,5,5,0,1,1,10,0,.312.312,0,0,0,.313.313h0a2.5,2.5,0,0,1,0,5H7.566A3.441,3.441,0,0,1,4.129,7.5Zm15.935,7.185a1.875,1.875,0,1,1-1.875-1.875A1.877,1.877,0,0,1,20.064,14.685Z" fill="#909090" stroke="#707070" stroke-width="0.2"/>
    <path id="Path_9978" data-name="Path 9978" d="M33.582,52.625a.285.285,0,0,0,.4,0l.568-.568h0a.286.286,0,0,0,0-.4h0l-.568-.568a.285.285,0,1,0-.4.4l.368.368-.368.368A.285.285,0,0,0,33.582,52.625Z" transform="translate(-20.559 -34.705)" fill="#909090" stroke="#707070" stroke-width="0.2"/>
    <path id="Path_9979" data-name="Path 9979" d="M26.558,51.083a.285.285,0,0,0-.4,0l-.567.567,0,0a.287.287,0,0,0,0,.4l0,0,.567.567a.285.285,0,0,0,.4-.4l-.368-.368.368-.369a.285.285,0,0,0,0-.4Z" transform="translate(-15.078 -34.705)" fill="#909090" stroke="#707070" stroke-width="0.2"/>
    <path id="Path_9980" data-name="Path 9980" d="M29.717,51.841a.276.276,0,0,0,.069.009.285.285,0,0,0,.276-.216l.57-2.281a.285.285,0,1,0-.553-.138l-.57,2.281A.285.285,0,0,0,29.717,51.841Z" transform="translate(-17.819 -33.274)" fill="#909090" stroke="#707070" stroke-width="0.2"/>
    <path id="Path_9981" data-name="Path 9981" d="M52.575,46.061a.285.285,0,0,0,.4,0l.284-.283h0a.286.286,0,0,0,0-.4h0l-.282-.282a.285.285,0,1,0-.4.4l.082.082-.084.083A.285.285,0,0,0,52.575,46.061Z" transform="translate(-33.459 -30.859)" fill="#909090" stroke="#707070" stroke-width="0.2"/>
    <path id="Path_9982" data-name="Path 9982" d="M46.269,45.085a.285.285,0,0,0-.4,0l-.284.283h0a.286.286,0,0,0,0,.4h0l.284.283a.285.285,0,0,0,.4-.4l-.083-.083.083-.083A.285.285,0,0,0,46.269,45.085Z" transform="translate(-28.806 -30.856)" fill="#909090" stroke="#707070" stroke-width="0.2"/>
    <path id="Path_9983" data-name="Path 9983" d="M49.288,44.212,49,45.351a.285.285,0,0,0,.208.346.289.289,0,0,0,.069.008.286.286,0,0,0,.276-.216l.284-1.139a.285.285,0,1,0-.553-.138Z" transform="translate(-30.959 -30.122)" fill="#909090" stroke="#707070" stroke-width="0.2"/>
    <path id="Path_9984" data-name="Path 9984" d="M14.578,46.061a.285.285,0,0,0,.4,0l.284-.283h0a.286.286,0,0,0,0-.4h0l-.282-.282a.285.285,0,1,0-.4.4l.082.082-.084.083A.285.285,0,0,0,14.578,46.061Z" transform="translate(-7.539 -30.859)" fill="#909090" stroke="#707070" stroke-width="0.2"/>
    <path id="Path_9985" data-name="Path 9985" d="M8.273,45.085a.285.285,0,0,0-.4,0l-.284.283h0a.286.286,0,0,0,0,.4h0l.284.283a.285.285,0,1,0,.4-.4l-.083-.083.083-.083A.285.285,0,0,0,8.273,45.085Z" transform="translate(-2.858 -30.856)" fill="#909090" stroke="#707070" stroke-width="0.2"/>
    <path id="Path_9986" data-name="Path 9986" d="M11.292,44.212l-.284,1.139a.285.285,0,0,0,.208.346.289.289,0,0,0,.069.008.286.286,0,0,0,.276-.216l.284-1.139a.285.285,0,1,0-.553-.138Z" transform="translate(-5.359 -30.122)" fill="#909090" stroke="#707070" stroke-width="0.2"/>
    <path id="Path_9987" data-name="Path 9987" d="M22.484,13.026h0s.009.006.013.011a.269.269,0,0,0,.069.057c.007,0,.013.013.021.017l.007,0a.279.279,0,0,0,.118.027h0a.288.288,0,0,0,.089-.014l.007,0,0,0a.251.251,0,0,0,.031-.016.264.264,0,0,0,.039-.02h0l.569-.429a.285.285,0,1,0-.343-.455l-.019.015a2.279,2.279,0,0,1,3.959-.791.285.285,0,1,0,.443-.359,2.847,2.847,0,0,0-4.968,1.065l-.011-.015a.285.285,0,1,0-.456.342Z" transform="translate(-12.452 -6.821)" fill="#909090" stroke="#707070" stroke-width="0.2"/>
  </g>
</svg>
