<svg xmlns="http://www.w3.org/2000/svg" width="26.444" height="17" viewBox="0 0 26.444 17"><defs><style>.a{fill:#909090;}</style></defs><g transform="translate(0 -85.333)"><g transform="translate(0 85.333)"><path class="a" d="M26,87.363a.945.945,0,0,0-.919-.042l-6.189,3.095v-2.25a2.833,2.833,0,0,0-2.833-2.833H2.833A2.833,2.833,0,0,0,0,88.166V99.5a2.833,2.833,0,0,0,2.833,2.833H16.056A2.833,2.833,0,0,0,18.889,99.5V97.25l6.189,3.1a.944.944,0,0,0,1.367-.85V88.166A.944.944,0,0,0,26,87.363ZM9.444,97.611a3.778,3.778,0,1,1,3.778-3.778A3.778,3.778,0,0,1,9.444,97.611Z" transform="translate(0 -85.333)"/></g></g></svg>