<svg xmlns="http://www.w3.org/2000/svg" width="20" height="20" viewBox="0 0 20 20">
  <path id="global_1_" data-name="global (1)" d="M18.9,5.455a9.993,9.993,0,0,0-17.807,0,.381.381,0,0,0-.02.038,9.963,9.963,0,0,0,0,9.008.381.381,0,0,0,.02.038,9.993,9.993,0,0,0,17.807,0,.366.366,0,0,0,.022-.043,9.965,9.965,0,0,0,0-9.005.447.447,0,0,0-.022-.043Zm-.666,8.458H14.415a19.951,19.951,0,0,0,.362-3.478h4.331A9.051,9.051,0,0,1,18.237,13.913ZM10,19.13c-1.375,0-2.609-1.763-3.308-4.348h6.616c-.7,2.585-1.933,4.348-3.308,4.348ZM6.484,13.913A18.954,18.954,0,0,1,6.1,10.435H13.9a19.028,19.028,0,0,1-.387,3.478ZM.891,10.435H5.223a19.992,19.992,0,0,0,.362,3.478H1.763a9.052,9.052,0,0,1-.871-3.478Zm.871-4.348H5.585a19.951,19.951,0,0,0-.362,3.478H.891a9.051,9.051,0,0,1,.871-3.478ZM10,.87c1.375,0,2.609,1.763,3.308,4.348H6.692C7.391,2.633,8.625.87,10,.87Zm3.516,5.217A18.95,18.95,0,0,1,13.9,9.565H6.1a19.024,19.024,0,0,1,.387-3.478Zm1.261,3.478a19.992,19.992,0,0,0-.362-3.478h3.822a9.051,9.051,0,0,1,.871,3.478Zm2.985-4.348H14.218a9.673,9.673,0,0,0-1.941-4.049,9.148,9.148,0,0,1,5.486,4.049ZM7.723,1.169A9.684,9.684,0,0,0,5.781,5.217H2.237A9.15,9.15,0,0,1,7.723,1.169ZM2.237,14.783H5.781a9.673,9.673,0,0,0,1.941,4.049,9.15,9.15,0,0,1-5.485-4.049Zm10.04,4.049a9.684,9.684,0,0,0,1.941-4.049h3.544a9.15,9.15,0,0,1-5.485,4.049Zm0,0" transform="translate(0)" fill="#909090"/>
</svg>
