<svg xmlns="http://www.w3.org/2000/svg" width="19" height="20" viewBox="0 0 19 20"><defs><style>.a{fill:#909090;}</style></defs><path class="a" d="M0,20c0-4.125,3.664-7.5,8.142-7.5h2.714C15.336,12.5,19,15.875,19,20Zm3.528-2.5H15.607a5.576,5.576,0,0,0-4.75-2.5H8.278A5.58,5.58,0,0,0,3.528,17.5Zm.544-11.25V5A5.243,5.243,0,0,1,9.5,0a5.243,5.243,0,0,1,5.429,5v1.25a5.243,5.243,0,0,1-5.429,5A5.243,5.243,0,0,1,4.071,6.249ZM6.785,5v1.25A2.622,2.622,0,0,0,9.5,8.75a2.622,2.622,0,0,0,2.715-2.5V5A2.622,2.622,0,0,0,9.5,2.5,2.621,2.621,0,0,0,6.785,5Z"/></svg>