<svg xmlns="http://www.w3.org/2000/svg" width="20.225" height="20.225" viewBox="0 0 20.225 20.225"><defs><style>.a{fill:#fff;}</style></defs><path class="a" d="M18.78,32H1.44A1.451,1.451,0,0,0,0,33.458V50.767a1.451,1.451,0,0,0,1.44,1.458H18.78a1.455,1.455,0,0,0,1.445-1.458V33.458A1.455,1.455,0,0,0,18.78,32ZM6.113,49.336h-3V39.684h3v9.652Zm-1.5-10.97a1.738,1.738,0,1,1,1.738-1.738A1.739,1.739,0,0,1,4.614,38.365Zm12.735,10.97h-3v-4.7c0-1.12-.023-2.56-1.558-2.56-1.562,0-1.8,1.219-1.8,2.478v4.776H8V39.684h2.876V41h.041a3.157,3.157,0,0,1,2.84-1.558c3.034,0,3.6,2,3.6,4.6Z" transform="translate(0 -32)"/></svg>